<svg viewBox="0 0 700 570" xmlns="http://www.w3.org/2000/svg" xmlns:xlink="http://www.w3.org/1999/xlink">
  <path
    d="M350 50.402c-126.67 0-229.6 102.93-229.6 229.6s102.93 229.6 229.6 229.6 229.6-102.93 229.6-229.6-102.93-229.6-229.6-229.6zm0 22.398c114.57 0 207.2 92.637 207.2 207.2 0 114.57-92.633 207.2-207.2 207.2S142.8 394.567 142.8 280 235.433 72.8 350 72.8zm-44.102 100.8c-12.184.293-22.789 10.688-23.102 25.551v161.52c.418 19.812 19.148 31.832 35.523 22.398l131.6-81.023c7.176-4.426 12.078-12.551 12.078-22.051s-4.902-17.625-12.074-22.051l-131.6-81.023c-4.094-2.36-8.363-3.422-12.426-3.324z" fill="#fff" />
</svg>